<mxfile host="app.diagrams.net" agent="Mozilla/5.0 (Windows NT 10.0; Win64; x64; rv:128.0) Gecko/20100101 Firefox/128.0" version="26.0.10">
  <diagram name="Page-1" id="ixhQH_wI5r04TIeVA5CD">
    <mxGraphModel dx="1434" dy="912" grid="1" gridSize="10" guides="1" tooltips="1" connect="1" arrows="1" fold="1" page="1" pageScale="1" pageWidth="1100" pageHeight="850" math="0" shadow="0">
      <root>
        <mxCell id="0" />
        <mxCell id="1" parent="0" />
        <mxCell id="5LqRZ1k8pEp_tbQ5V-Lb-3" value="&lt;font style=&quot;font-size: 24px;&quot;&gt;TRACK IMAGE&lt;/font&gt;" style="whiteSpace=wrap;html=1;aspect=fixed;fillColor=#dae8fc;strokeColor=#6c8ebf;" vertex="1" parent="1">
          <mxGeometry x="100" y="240" width="420" height="420" as="geometry" />
        </mxCell>
        <mxCell id="5LqRZ1k8pEp_tbQ5V-Lb-4" value="&lt;font style=&quot;font-size: 24px;&quot;&gt;VEHICLE IMAGE/MODEL&lt;br&gt;&lt;/font&gt;" style="whiteSpace=wrap;html=1;aspect=fixed;fillColor=#dae8fc;strokeColor=#6c8ebf;" vertex="1" parent="1">
          <mxGeometry x="580" y="240" width="420" height="420" as="geometry" />
        </mxCell>
        <mxCell id="5LqRZ1k8pEp_tbQ5V-Lb-5" value="&lt;div&gt;&lt;font style=&quot;font-size: 18px;&quot;&gt;Continue&lt;/font&gt;&lt;/div&gt;&lt;font size=&quot;3&quot;&gt;(goes to leaderboard)&lt;/font&gt;" style="rounded=0;whiteSpace=wrap;html=1;fillColor=#f8cecc;strokeColor=#b85450;" vertex="1" parent="1">
          <mxGeometry x="780" y="700" width="220" height="60" as="geometry" />
        </mxCell>
        <mxCell id="5LqRZ1k8pEp_tbQ5V-Lb-6" value="&lt;font style=&quot;font-size: 18px;&quot;&gt;TRACK NAME (selection)&lt;br&gt;&lt;/font&gt;" style="rounded=0;whiteSpace=wrap;html=1;fillColor=#fff2cc;strokeColor=#d6b656;" vertex="1" parent="1">
          <mxGeometry x="190" y="100" width="720" height="50" as="geometry" />
        </mxCell>
        <mxCell id="5LqRZ1k8pEp_tbQ5V-Lb-7" value="&lt;font style=&quot;font-size: 18px;&quot;&gt;VEHICLE NAME (selection)&lt;br&gt;&lt;/font&gt;" style="rounded=0;whiteSpace=wrap;html=1;fillColor=#fff2cc;strokeColor=#d6b656;" vertex="1" parent="1">
          <mxGeometry x="190" y="170" width="720" height="50" as="geometry" />
        </mxCell>
        <mxCell id="5LqRZ1k8pEp_tbQ5V-Lb-8" value="" style="triangle;whiteSpace=wrap;html=1;fillColor=#fff2cc;strokeColor=#d6b656;" vertex="1" parent="1">
          <mxGeometry x="920" y="100" width="40" height="50" as="geometry" />
        </mxCell>
        <mxCell id="5LqRZ1k8pEp_tbQ5V-Lb-9" value="" style="triangle;whiteSpace=wrap;html=1;rotation=-180;fillColor=#fff2cc;strokeColor=#d6b656;" vertex="1" parent="1">
          <mxGeometry x="140" y="170" width="40" height="50" as="geometry" />
        </mxCell>
        <mxCell id="5LqRZ1k8pEp_tbQ5V-Lb-10" value="" style="triangle;whiteSpace=wrap;html=1;rotation=-180;fillColor=#fff2cc;strokeColor=#d6b656;" vertex="1" parent="1">
          <mxGeometry x="140" y="100" width="40" height="50" as="geometry" />
        </mxCell>
        <mxCell id="5LqRZ1k8pEp_tbQ5V-Lb-11" value="" style="triangle;whiteSpace=wrap;html=1;fillColor=#fff2cc;strokeColor=#d6b656;" vertex="1" parent="1">
          <mxGeometry x="920" y="170" width="40" height="50" as="geometry" />
        </mxCell>
        <mxCell id="5LqRZ1k8pEp_tbQ5V-Lb-12" value="&lt;div&gt;&lt;font style=&quot;font-size: 36px; color: rgb(255, 0, 0);&quot;&gt;DRAFT&lt;/font&gt;&lt;/div&gt;&lt;div&gt;&lt;font style=&quot;color: rgb(255, 0, 0);&quot; size=&quot;3&quot;&gt;2025-02-02&lt;/font&gt;&lt;font style=&quot;color: rgba(0, 0, 0, 0);&quot; size=&quot;3&quot;&gt;&lt;br&gt;&lt;/font&gt;&lt;/div&gt;" style="text;html=1;align=center;verticalAlign=middle;whiteSpace=wrap;rounded=0;" vertex="1" parent="1">
          <mxGeometry x="440" y="10" width="220" height="70" as="geometry" />
        </mxCell>
        <mxCell id="5LqRZ1k8pEp_tbQ5V-Lb-13" value="&lt;div&gt;&lt;font size=&quot;3&quot;&gt;This is the game&#39;s main menu, from which the player can choose from the game&#39;s tracks and vehicles.&lt;/font&gt;&lt;/div&gt;&lt;div&gt;&lt;font size=&quot;3&quot;&gt;They can also use this screen to adjust settings or quit.&lt;br&gt;&lt;/font&gt;&lt;/div&gt;" style="text;html=1;align=center;verticalAlign=middle;whiteSpace=wrap;rounded=0;" vertex="1" parent="1">
          <mxGeometry x="330" y="700" width="440" height="110" as="geometry" />
        </mxCell>
        <mxCell id="5LqRZ1k8pEp_tbQ5V-Lb-14" value="&lt;div&gt;&lt;font style=&quot;font-size: 18px;&quot;&gt;Settings&lt;/font&gt;&lt;/div&gt;" style="rounded=0;whiteSpace=wrap;html=1;fillColor=#f8cecc;strokeColor=#b85450;" vertex="1" parent="1">
          <mxGeometry x="100" y="700" width="220" height="60" as="geometry" />
        </mxCell>
        <mxCell id="5LqRZ1k8pEp_tbQ5V-Lb-15" value="&lt;font style=&quot;font-size: 18px;&quot;&gt;Exit&lt;/font&gt;" style="rounded=0;whiteSpace=wrap;html=1;fillColor=#f8cecc;strokeColor=#b85450;" vertex="1" parent="1">
          <mxGeometry x="100" y="770" width="220" height="60" as="geometry" />
        </mxCell>
      </root>
    </mxGraphModel>
  </diagram>
</mxfile>
